<svg xmlns="http://www.w3.org/2000/svg" viewBox="0 0 1080 1080">
<style type="text/css">
	.st0{fill:#17171F;}
	.st1{fill:#F0F0F6;}
	.st2{fill:#F0F0F6;stroke:#F0F0F6;stroke-miterlimit:10;}
	.st3{fill:rgba(0,0,0,0);}
</style>
	<rect class="st3" height="1080" width="1080" />
	<path class="st0" d="M72,897.5c-5.2,0-9.5-4.3-9.5-9.5V192c0-5.2,4.3-9.5,9.5-9.5h936c5.2,0,9.5,4.3,9.5,9.5v696 c0,5.2-4.3,9.5-9.5,9.5H72z"/>
	<path class="st1" d="M1008,185c3.9,0,7,3.1,7,7v696c0,3.9-3.1,7-7,7H72c-3.9,0-7-3.1-7-7V192c0-3.9,3.1-7,7-7H1008 M1008,180H72 c-6.6,0-12,5.4-12,12v696c0,6.6,5.4,12,12,12h936c6.6,0,12-5.4,12-12V192C1020,185.4,1014.6,180,1008,180L1008,180z"/>
	<path class="st2" d="M480,791.8l-240,0.4V288.2l239.8-0.4v157.9h-88.4V351h-63.1V729h63.1v-94.5h88.4L480,791.8z"/>
	<path class="st2" d="M840,791.8l-240,0.4V288.2l239.8-0.4v157.9h-88.4V351h-63.1V729h63.1v-94.5h88.4L840,791.8z"/>
</svg>